<svg xmlns="http://www.w3.org/2000/svg" viewBox="345 325 330 375" width="100%" height="100%">
  <defs>
    <linearGradient id="a" x1="536.314" x2="486.385" y1="627.7" y2="461.476" gradientUnits="userSpaceOnUse">
      <stop offset="0" stop-color="#941dbf"/>
      <stop offset="1" stop-color="#335ef2"/>
    </linearGradient>
    <linearGradient id="b" x1="521.719" x2="494.132" y1="472.804" y2="349.888" gradientUnits="userSpaceOnUse">
      <stop offset="0" stop-color="#4747e5"/>
      <stop offset="1" stop-color="#029aee"/>
    </linearGradient>
  </defs>
  
  <path fill="url(#a)" d="M484.91 469.669c1.842 1.773 1.327 1.857 3.342 2.086 8.661-4.626 15.467-8.555 26.391-5.177a24.6 24.6 0 0 1 14.544 12.333c6.533 12.736 1.729 28.663-11.619 34.878-10.432 4.858-19.338.868-29.188-2.845-11.011 9.035-25.681 20.408-36.011 29.906 1.247 5.608 1.171 9.016 1.094 14.809 8.757 6.477 18.533 12.728 27.506 19.033 3.2 2.247 12.033 8.65 14.965 10.17 14.431-8.234 24.986-10.287 39.203.253 11.26-7.441 28.512-18.467 38.861-26.597-.125-10.025-.759-18.806 7.112-26.818 10.171-10.355 28.106-9.88 37.955.723 9.31 10.024 8.373 28.885-2.324 37.701-9.421 7.98-22.301 6.937-32.929 2.205l-24.022 16.858c-3.587 2.496-12.746 8.652-15.555 11.319-2.152 11.479-2.265 21.617-13.177 28.84-12.301 8.143-30.916 4.921-38.424-8.195-3.928-6.862-4.192-14.697-4.71-22.279-2.972-2.868-8.806-6.112-12.361-8.541-9.002-6.153-19.821-12.129-28.616-18.359-13.898 9.343-30.994 8.812-41.376-5.871-8.305-11.746-5.214-30.959 7.189-38.544 9.434-5.938 19.757-4.149 29.401-.193 6.093-3.769 31.964-25.285 36.845-30.631-.02-3.414.039-7.18-.23-10.552-2.215-3.305-7.454-7.986-10.539-11.218-.705-2.15-4.649-5.761-6.369-7.512 1.49 1.032 5.37 4.036 6.861 4.169-.456-1.314-.523-1.251-.352-2.607 2.348-1.332 8.898 3.025 16.533.656"/>
  
  <path fill="url(#b)" d="M487.046 381.007c-1.966-9.014.303-19.308 6.551-26.193a29.23 29.23 0 0 1 20.127-9.386 27.18 27.18 0 0 1 19.825 7.548c7.951 7.686 7.545 16.236 7.526 26.204 12.799 9.024 28.705 19.786 41.909 28.043 49.409-19.563 53.692 45.747 20.042 48.386a28.59 28.59 0 0 1-20.783-6.987c-8.363-7.443-8.143-15.925-8.715-26.044-3.236-2.93-9.808-7.35-13.527-9.918a1075 1075 0 0 0-26.485-17.603c-12.32 9.195-25.669 8.8-38.385.863-10.264 6.448-20.04 14.1-30.314 20.591-3.505 2.215-7.732 4.813-10.845 7.499-.002 5.543-.01 9.645-.551 15.185 9.452 9.814 21.338 20.078 31.489 30.474-7.635 2.369-14.185-1.988-16.533-.656-.171 1.356-.104 1.293.352 2.607-1.491-.133-5.371-3.137-6.861-4.169 1.72 1.751 5.664 5.362 6.369 7.512-7.855-6.829-17.248-16.195-24.941-23.508-10.17 6.076-21.677 7.763-32.104.764a25.55 25.55 0 0 1-11.135-17.01 26.05 26.05 0 0 1 4.355-19.519c6.625-9.276 19.015-15.187 30.241-11.57 4.488 1.446 6.357 2.862 10.111 5.579 13.895-9.122 28.375-19.329 42.282-28.692"/>
</svg>
